<?xml version="1.0" encoding="UTF-8" standalone="no"?>
<!-- Created with Inkscape (http://www.inkscape.org/) -->

<svg
   width="1080"
   height="1080"
   viewBox="0 0 285.74999 285.75"
   version="1.1"
   id="svg1"
   xml:space="preserve"
   inkscape:version="1.4 (e7c3feb100, 2024-10-09)"
   sodipodi:docname="Biblioteca-Logo.svg"
   inkscape:export-filename="Biblioteca-Logo.png"
   inkscape:export-xdpi="96"
   inkscape:export-ydpi="96"
   xmlns:inkscape="http://www.inkscape.org/namespaces/inkscape"
   xmlns:sodipodi="http://sodipodi.sourceforge.net/DTD/sodipodi-0.dtd"
   xmlns="http://www.w3.org/2000/svg"
   xmlns:svg="http://www.w3.org/2000/svg"><sodipodi:namedview
     id="namedview1"
     pagecolor="#505050"
     bordercolor="#eeeeee"
     borderopacity="1"
     inkscape:showpageshadow="0"
     inkscape:pageopacity="0"
     inkscape:pagecheckerboard="0"
     inkscape:deskcolor="#505050"
     inkscape:document-units="px"
     inkscape:zoom="0.30510348"
     inkscape:cx="1902.6332"
     inkscape:cy="737.45472"
     inkscape:window-width="1366"
     inkscape:window-height="704"
     inkscape:window-x="0"
     inkscape:window-y="0"
     inkscape:window-maximized="1"
     inkscape:current-layer="layer1" /><defs
     id="defs1" /><g
     inkscape:label="Camada 1"
     inkscape:groupmode="layer"
     id="layer1"><g
       id="g2"
       transform="translate(0,11.707093)"><path
         class="fil0"
         d="m 108.50207,62.520387 c 0.5896,0.383497 0.89775,-0.206498 0.33765,0.987444 -0.49751,-0.189755 -0.33884,0.450469 -0.50747,-0.344828 -0.13634,-0.643413 -0.14511,-0.237991 0.16982,-0.642616 z m -3.91589,1.529601 c 1.81463,0.09408 0.63943,-0.765398 1.04365,1.473391 l 1.47738,-2.594381 0.54814,1.229421 c 0.354,0.705602 0.12358,0.756628 0.96193,1.000998 0.89536,0.261112 1.9992,-0.266295 2.62149,-0.8531 0.39426,-2.009171 -0.25912,-1.990833 -1.04764,-2.949574 l 4.16066,-0.66773 c 0.0112,5.31872 -1.83497,12.4732 -7.52642,12.092095 -4.00678,-0.268686 -7.183182,-7.811446 -6.78494,-12.525024 1.13574,-2.786926 11.49892,-3.960138 14.26471,-1.687464 l 0.0921,2.225635 c -5.13733,-0.460435 -7.24338,-0.267889 -9.81105,3.255733 z m 29.90515,-5.123783 c 0.6179,0.651386 0.47399,-1.037274 0.31612,0.396253 -0.0913,0.827188 0.14312,0.07973 -0.31612,0.626271 -0.35241,-0.462827 -1.06,-0.07734 0,-1.022524 z m -3.12658,-0.545346 c -1.03049,0.740682 -1.40921,0.980268 -1.80785,2.104845 1.02811,-0.838749 2.11162,-1.804267 4.10046,-1.773173 -1.02452,2.524618 0.51744,3.070762 2.84194,2.544949 l 0.69205,-2.322505 c 2.77536,1.153679 -0.22085,8.436522 -3.5906,10.564887 -4.53299,2.863467 -8.11242,-1.514053 -9.47818,-4.970304 -0.57365,-1.451466 -1.21467,-5.033689 -1.02292,-6.942003 0.36077,-3.586209 8.55133,-4.492329 11.73969,-4.324101 2.50708,0.13235 2.96991,1.198327 3.18159,5.317524 -2.88499,-0.637034 -3.95655,-1.170022 -7.24258,-0.871836 -0.17899,0.438509 -0.56568,-0.740283 0.19932,0.0893 0.49033,0.531393 0.23042,-0.325295 0.38708,0.58242 z m 39.04767,-3.907518 c 4.92366,0.271478 5.99921,1.420771 7.64202,6.573256 -1.98804,-1.250947 -0.49073,-2.118 -6.93163,-6.066578 -0.76979,-0.471995 -0.36835,-0.235998 -0.71039,-0.506678 z m -0.0694,0.131553 c -8.80288,-0.486347 -18.97191,-3.116606 -27.75526,-3.304367 -1.29121,-0.02751 -2.2651,0.330476 -3.40801,0.342834 -2.76739,0.0303 -9.66355,-1.944988 -16.08333,2.27985 -3.03727,1.998806 -0.82798,0.335261 -6.6482,1.421967 0.45804,-1.218658 0.75543,-1.448277 0.82679,-2.940006 l -1.45067,3.528007 c -2.0303,0.43532 -3.88041,-0.521427 -6.30138,-0.633845 -3.04963,-0.141918 -4.21089,0.431732 -6.75902,0.699621 0.36635,-3.307955 2.47797,-3.401238 2.72274,-6.544154 0.28623,-3.675506 -1.50169,-3.948179 0.354,-8.067776 7.43074,-16.495926 7.61212,-10.915694 13.01376,-14.648605 2.30736,-1.594181 3.57624,-1.843334 6.86785,-2.173412 6.53818,-0.65617 9.19156,-3.351807 15.8569,-2.876223 8.19295,0.584413 4.49353,-0.266295 8.76541,-0.39705 4.9113,-0.15029 10.66056,1.015348 11.59538,6.742281 0.70441,4.316925 -1.45625,3.852903 -1.9414,7.02492 -0.60195,3.937416 -0.7068,3.764404 -2.27307,6.921672 -2.80008,5.643217 0.065,4.377519 2.87343,8.02233 2.03747,2.64461 1.64082,2.930438 5.95536,3.413197 0.73789,0.08252 1.48296,0.165836 2.11321,0.346821 z M 111.14549,28.810576 c -0.43054,2.060197 -4.7965,9.740091 -5.98087,12.251952 -1.75165,3.713776 -0.78813,3.879214 -0.62588,7.726137 0.15866,3.758026 -2.48874,2.521031 -2.22603,7.364566 -1.19633,0.563684 -2.06697,0.892167 -3.322705,1.678295 -3.16245,1.978873 -4.562491,-0.08491 -4.075745,3.431535 0.124775,0.901336 0.22045,1.398447 0.479171,2.273074 l 2.572057,-0.274268 c 1.146901,5.103851 2.798092,9.677105 6.885792,11.113821 2.48755,0.874627 5.52841,-0.0048 7.00459,-1.31194 2.46602,-2.183378 2.01236,-2.682482 3.73331,-5.372139 -0.20052,6.76022 -5.6181,8.852309 -4.38669,12.726738 l 0.2934,-1.253738 c 0.14551,-0.797688 0.0431,-0.698027 0.32729,-1.408811 0.65577,-1.639626 2.69923,-2.673313 3.76002,-7.016549 0.23879,-0.977477 0.36038,-2.014751 0.53498,-2.854297 0.33446,-1.610526 0.0981,-1.614113 0.0913,-2.909311 -0.006,-1.047638 0.45087,-5.675507 0.61112,-6.532594 1.3558,-0.521029 2.34005,-0.641419 3.95137,-0.284632 0.90971,4.914096 2.4421,15.009379 10.68847,14.053827 10.05661,-1.165239 8.58561,-14.674517 8.98864,-16.144321 2.95317,-1.140922 16.16346,-0.346821 20.36996,-0.1471 2.84393,0.134742 7.35739,-0.180187 9.60854,1.121787 1.38529,0.800877 4.88181,3.851308 5.67192,5.238592 -1.95814,1.522027 -5.71697,3.494123 -5.31314,6.589601 4.17421,-6.44848 16.45646,-11.601763 18.57566,-2.769785 0.70121,2.922466 0.42097,7.037278 -0.42217,9.811847 -1.92386,6.329285 -5.19913,8.678101 -8.37593,12.195743 -0.80725,0.893762 -4.20889,4.058205 -5.98844,4.546944 -4.00877,1.101456 -4.43811,-2.709988 -3.65717,-5.493725 -3.95934,2.578036 0.95236,11.275671 8.50389,3.187166 0.99821,-1.069565 0.49552,-0.953958 1.77118,-1.53877 -0.0554,3.069965 -2.0275,4.832772 -2.881,7.266499 1.59019,-1.400838 3.69025,-4.811643 4.95595,-6.96911 2.00558,-3.417582 -0.77178,-1.095874 3.0006,-6.108435 0.3823,-0.507874 0.89655,-1.277259 1.22703,-1.815828 2.59877,-4.234805 5.57664,-15.280458 0.7048,-18.9157 1.17401,-1.726133 1.50608,-0.554117 1.41121,-3.697831 -0.14272,-4.743475 2.30576,-4.176204 0.31931,-13.570271 -0.72194,-3.413197 0.40064,-7.236202 -0.14192,-9.655578 -0.2627,-1.171617 -1.12816,-2.322904 -1.66553,-3.4124 -0.63305,-1.284833 -1.00579,-2.563287 -1.47977,-3.918281 -3.48017,-9.949379 -6.08572,-9.83138 -8.24717,-12.671327 -4.08651,-5.3689491 -5.44031,-3.724938 -14.17581,-6.7825439 -2.51864,-0.8814039 -6.34922,-0.6581627 -9.20591,-1.1983266 -4.01834,-0.7606145 -5.61531,-0.06458 -9.37732,0.31772 -4.19175,0.4257528 -5.09827,-1.2365965 -9.49054,0.2224439 -5.82221,1.934225 -3.0895,-0.6772977 -8.65139,1.8102464 -1.57505,0.7044052 -2.88858,0.2706799 -4.19335,0.8945592 -0.75543,0.361172 -1.98964,1.808253 -2.92366,2.465619 -4.70162,3.309151 -6.37673,-0.32968 -9.81583,5.704608 -0.95715,1.679093 -2.25992,1.733707 -2.60555,2.792109 -0.1479,0.452063 0.12398,4.297791 0.30337,4.832374 0.4134,1.234204 1.76998,1.885989 2.8846,2.409808 z"
         id="path7"
         style="clip-rule:evenodd;fill:#45754d;fill-opacity:1;fill-rule:evenodd;stroke-width:0.0398645;image-rendering:optimizeQuality;shape-rendering:geometricPrecision;text-rendering:geometricPrecision" /><path
         class="fil0"
         d="m 90.709353,183.52984 -3.846923,0.43373 -0.002,-6.824 c 1.994819,0.007 3.696634,-0.27188 4.170623,1.40681 0.35001,1.23899 0.125971,4.14472 -0.321707,4.98346 z M 86.99199,165.00761 c 1.883597,0.0387 2.281046,-0.10724 3.685472,0.46242 0.369942,1.5308 0.30576,3.72375 -0.04146,5.27089 -1.471399,0.61391 -1.819017,0.55212 -3.81264,0.54534 z m -8.753445,24.72116 c 2.352403,0.45047 8.006384,0.13554 10.68767,0.14391 7.455855,0.0239 11.796695,-0.89137 11.006585,-10.3831 -0.423759,-5.0907 -3.594581,-4.89098 -5.112621,-5.82699 2.600361,-1.63325 4.06578,-1.37413 4.508674,-5.40204 0.406618,-3.69385 -0.355192,-5.99841 -2.460436,-7.61252 -3.000202,-2.29979 -14.056618,-2.02871 -18.548549,-1.64123 z"
         id="path13"
         style="clip-rule:evenodd;fill:#45754d;fill-opacity:1;fill-rule:evenodd;stroke-width:0.0398645;image-rendering:optimizeQuality;shape-rendering:geometricPrecision;text-rendering:geometricPrecision" /><path
         class="fil0"
         d="m 51.466749,177.0993 c 1.482959,0.0235 2.663347,-0.11202 3.707398,0.5892 0.815627,1.44828 0.760614,4.28464 0.06618,5.49572 -1.055213,0.97787 -2.065778,0.71158 -3.882004,0.73111 z m 0.09209,-12.06578 c 1.893165,-0.0578 2.260715,-0.0754 3.64202,0.43412 0.34124,1.81025 0.456847,4.07336 -0.289815,5.61372 l -3.561095,0.23799 z m -8.796498,24.74827 c 4.389479,0.4995 16.629073,0.78374 19.435932,-1.66434 2.002393,-1.74607 2.568469,-4.82679 2.276661,-8.39666 -0.367152,-4.49512 -2.01794,-4.41738 -5.022527,-6.0582 0.07494,-0.0498 0.194937,-0.20371 0.232809,-0.13515 0.01555,0.0279 3.856889,-1.31393 4.192548,-5.6165 0.291808,-3.74089 -0.570062,-5.76441 -2.658164,-7.39128 -2.923263,-2.27746 -13.87085,-1.77118 -18.360388,-1.53119 z"
         id="path15"
         style="clip-rule:evenodd;fill:#45754d;fill-opacity:1;fill-rule:evenodd;stroke-width:0.0398645;image-rendering:optimizeQuality;shape-rendering:geometricPrecision;text-rendering:geometricPrecision" /><path
         class="fil0"
         d="m 140.4415,167.92489 c 0,-2.10883 0.0969,-3.58342 2.47439,-3.43632 2.29978,0.14272 1.95017,1.86566 1.94379,3.77357 0.006,3.37533 -0.003,6.75066 0.001,10.12558 0.004,3.81743 0.8511,7.01456 -4.18418,5.50688 -0.37592,-5.50927 -0.23679,-10.39426 -0.2352,-15.96971 z m -0.76859,-9.1784 c -10.26112,1.51445 -8.0311,9.16843 -8.03429,18.96633 -0.002,4.7351 -0.16982,8.38948 3.03409,10.6207 2.68766,1.87123 7.55432,2.37113 11.52682,1.72134 9.52761,-1.5587 7.52522,-9.60654 7.5312,-19.0923 0.003,-4.82639 0.27426,-8.34842 -3.01456,-10.49871 -2.76739,-1.80905 -7.15966,-2.29021 -11.04326,-1.71736 z"
         id="path17"
         style="clip-rule:evenodd;fill:#45754d;fill-opacity:1;fill-rule:evenodd;stroke-width:0.0398645;image-rendering:optimizeQuality;shape-rendering:geometricPrecision;text-rendering:geometricPrecision" /><path
         class="fil2"
         d="m 218.84738,178.4252 -8.58881,0.004 c -0.15228,3.89197 0.90572,6.97469 -4.01993,5.49612 -0.6179,-1.71856 -0.529,-16.92447 -0.29101,-17.8848 0.43133,-1.74089 2.78613,-1.90114 3.92506,-0.5609 0.53099,1.17441 0.38828,3.17202 0.32649,4.69245 l 8.66654,0.20291 c -0.11162,-4.30895 0.32449,-7.60176 -2.54894,-9.68189 -2.67531,-1.93622 -6.24796,-2.54455 -10.28225,-2.21447 -10.03469,0.82001 -8.9428,6.94718 -8.91091,16.19654 0.0315,9.20272 -1.05521,14.85909 9.13136,15.66635 10.13555,0.80327 13.23382,-2.7654 12.5924,-11.91629 z"
         id="path19"
         style="clip-rule:evenodd;fill:#45754d;fill-opacity:1;fill-rule:evenodd;stroke-width:0.0398645;image-rendering:optimizeQuality;shape-rendering:geometricPrecision;text-rendering:geometricPrecision" /><path
         class="fil2"
         d="m 231.71324,166.1557 c 0.88101,1.5898 1.76082,8.96473 1.74846,11.19754 l -3.42954,-0.0817 z m -12.30377,23.69904 8.76301,-0.004 1.03687,-6.80328 5.24378,-0.10803 0.89257,6.93642 8.62508,0.0112 -6.91849,-30.93524 -10.31055,-4e-4 z"
         id="path21"
         style="clip-rule:evenodd;fill:#45754d;fill-opacity:1;fill-rule:evenodd;stroke-width:0.0398645;image-rendering:optimizeQuality;shape-rendering:geometricPrecision;text-rendering:geometricPrecision" /><path
         class="fil0"
         d="m 178.28805,189.87388 16.84354,-0.007 0.0431,-5.94977 -8.1196,-0.0909 0.0422,-6.69804 7.47779,0.006 -0.002,-5.95416 -7.3251,-0.0463 c -0.3508,-1.38051 -0.36874,-4.71597 0.0323,-6.06299 l 7.9147,-0.0387 -0.0243,-6.0582 -16.69883,-0.0235 z"
         id="path23"
         style="clip-rule:evenodd;fill:#45754d;fill-opacity:1;fill-rule:evenodd;stroke-width:0.0398645;image-rendering:optimizeQuality;shape-rendering:geometricPrecision;text-rendering:geometricPrecision" /><polygon
         class="fil2"
         points="3406.55,3833.63 2859.74,3834.44 2857.42,3980.09 3020.9,3985.5 3023.44,4609.22 3241.68,4609.75 3242.59,3985.17 3406.99,3985.02 "
         id="polygon27"
         style="clip-rule:evenodd;fill:#45754d;fill-opacity:1;fill-rule:evenodd;image-rendering:optimizeQuality;shape-rendering:geometricPrecision;text-rendering:geometricPrecision"
         transform="matrix(0.03986449,0,0,0.03986449,40.971625,6.1037625)" /><path
         class="fil0"
         d="m 102.04083,189.87507 16.56968,-0.006 0.003,-5.9737 -7.89716,0.0223 c -0.0945,-3.89317 0.62468,-22.87744 -0.2348,-24.68968 l -8.27467,-0.28941 c -0.79968,3.21148 -0.28463,26.01995 -0.16624,30.93643 z"
         id="path29"
         style="clip-rule:evenodd;fill:#45754d;fill-opacity:1;fill-rule:evenodd;stroke-width:0.0398645;image-rendering:optimizeQuality;shape-rendering:geometricPrecision;text-rendering:geometricPrecision" /><path
         class="fil0"
         d="m 138.21826,133.4154 9.22544,-1.25773 c -0.72713,0.97469 -5.84653,0.65976 -8.57366,2.34084 -1.20351,0.74188 -2.28144,1.33905 -2.31333,3.36855 -0.0172,1.11103 0.45166,4.20172 0.78572,4.91011 1.07874,2.28862 10.65499,8.88101 14.37355,8.63505 2.57006,-0.16982 2.42455,-6.39068 2.88738,-8.64182 0.38111,-1.85251 1.38091,-2.08372 0.8834,-4.27986 -0.99821,-4.40622 3.30875,-9.9705 -7.93822,-7.43991 -2.22165,0.49991 -1.73131,1.27806 -4.60674,1.05083 -1.70181,-0.13474 -4.00678,-0.33765 -4.72354,1.31394 z"
         id="path31"
         style="clip-rule:evenodd;fill:#45754d;fill-opacity:1;fill-rule:evenodd;stroke-width:0.0398645;image-rendering:optimizeQuality;shape-rendering:geometricPrecision;text-rendering:geometricPrecision" /><path
         class="fil2"
         d="m 116.94019,147.0068 c 2.29539,1.97369 6.34443,-0.35958 9.09428,-0.71677 2.12518,-0.27626 6.97549,-2.21686 8.0024,-3.34184 -1.0596,-2.95436 -5.30596,-0.16464 -4.21049,-6.07535 0.88659,-0.89296 1.36855,-0.82718 2.36237,-1.62647 1.08153,-0.86984 0.97629,-1.12816 2.96552,-1.03966 -1.71696,1.57464 -4.52302,1.83018 -4.04186,5.0289 0.62029,0.92924 3.46542,3.24497 4.93363,2.91091 0.17421,-2.74148 -1.53119,-2.10485 -1.2358,-4.90453 0.22324,-2.11481 1.66195,-2.33008 2.95795,-3.45147 -0.76779,-0.6482 0.12238,0.0734 -1.36257,-0.54335 -3.56428,-1.47977 -2.79171,-1.05083 -7.20072,-1.91908 -2.1475,-0.42296 -2.29102,-1.11421 -4.18936,-1.52163 -1.74607,-0.37472 -3.40523,-0.0646 -5.27886,-0.44688 -2.39426,-0.48834 -2.99063,-0.3823 -3.10345,2.11123 -0.0973,2.14311 0.46522,3.24457 0.5896,5.12378 0.1471,2.22524 -1.05362,8.9436 -0.28264,10.41221 z"
         id="path33"
         style="clip-rule:evenodd;fill:#45754d;fill-opacity:1;fill-rule:evenodd;stroke-width:0.0398645;image-rendering:optimizeQuality;shape-rendering:geometricPrecision;text-rendering:geometricPrecision" /><polygon
         class="fil0"
         points="861.31,3835.96 641.56,3834.48 639.44,4606.39 861.09,4609.53 "
         id="polygon35"
         style="clip-rule:evenodd;fill:#45754d;fill-opacity:1;fill-rule:evenodd;image-rendering:optimizeQuality;shape-rendering:geometricPrecision;text-rendering:geometricPrecision"
         transform="matrix(0.03986449,0,0,0.03986449,40.971625,6.1037625)" /><polygon
         class="fil4"
         points="2207.78,3835.81 1987.7,3834.34 1985.81,4605.55 2206.81,4609.83 "
         id="polygon37"
         style="clip-rule:evenodd;fill:#45754d;fill-opacity:1;fill-rule:evenodd;image-rendering:optimizeQuality;shape-rendering:geometricPrecision;text-rendering:geometricPrecision"
         transform="matrix(0.03986449,0,0,0.03986449,40.971625,6.1037625)" /><path
         class="fil3"
         d="m 137.20251,130.17322 c -2.24596,-4.39546 -11.41998,-7.22026 -0.19852,-11.35939 l 4.20092,-1.53239 c 1.28443,-0.71995 0.51026,0.0211 1.10942,-1.14291 -6.72673,0.37073 -14.6195,7.51126 -22.37912,3.56468 -2.77617,-1.4116 -6.98267,-8.6195 3.07833,-10.8276 3.18996,-0.70002 4.50748,-0.0801 5.70142,-0.3819 0.87144,-0.22005 0.23919,0.0901 0.81922,-0.38708 -11.532,-3.11541 -10.99702,2.08013 -12.93164,1.85449 -1.89995,-0.92724 -3.21826,-4.83436 -4.20451,-7.3534 -3.89277,-9.944197 -2.60913,-8.98426 -4.59837,-18.733121 -1.31712,-6.454061 -1.60415,-4.941602 -3.14411,-8.259923 0.13992,0.961532 1.46821,4.13036 2.14271,8.30497 0.49273,3.048437 1.19753,6.054618 1.75683,9.052029 1.15926,6.214874 3.1489,10.739095 5.94938,15.948985 1.56109,2.90413 0.59956,12.12439 8.27626,13.64562 4.29062,0.85031 5.19435,-1.05123 8.51506,2.29898 1.89715,1.91389 2.88061,4.57246 5.90672,5.30796 z"
         id="path53"
         style="clip-rule:evenodd;fill:#45754d;fill-opacity:1;fill-rule:evenodd;stroke-width:0.0398645;image-rendering:optimizeQuality;shape-rendering:geometricPrecision;text-rendering:geometricPrecision" /><path
         class="fil7"
         d="m 180.3921,74.824562 -1.77477,0.867053 c -0.43931,0.247957 -0.4126,0.231214 -0.62667,0.427746 1.28563,0.627866 1.81503,0.178593 3.25334,-0.225235 -0.53179,3.263706 -2.98585,5.079135 -6.59478,4.629065 -0.2065,-0.877019 -0.0889,-1.503688 -0.12159,-2.54455 l -0.20929,-2.689657 c -1.92266,1.142117 0.0566,1.706598 -1.35778,3.862071 -0.90851,1.384095 -1.65398,1.509669 -0.97509,3.657966 2.76461,0.717959 3.15687,-0.69125 4.9739,-1.322704 1.97847,-0.688061 3.62487,-0.508272 4.76261,-2.005184 1.71856,-2.261114 1.43432,-5.178397 -0.3245,-7.709792 -0.81682,-1.175604 -1.35778,-0.95914 -2.82799,-0.859877 0.23481,2.537375 1.3837,1.002193 1.82261,3.913098 z"
         id="path85"
         style="clip-rule:evenodd;fill:#45754d;fill-opacity:1;fill-rule:evenodd;stroke-width:0.0398645;image-rendering:optimizeQuality;shape-rendering:geometricPrecision;text-rendering:geometricPrecision" /><path
         class="fil11"
         d="m 113.11758,94.008152 c 3.98087,2.155074 13.43115,-0.532589 16.3568,1.012558 -2.93801,1.77995 -7.90593,1.63564 -11.60854,1.269286 0.26351,0.202511 0.21567,0.225234 0.706,0.427745 4.32091,1.784734 13.7086,-1.810246 15.07874,-1.838948 -1.73968,-0.375923 -3.47299,-0.458442 -5.24417,-0.848317 -4.13315,-0.909309 -6.32809,-2.477976 -9.6193,-0.918079 -3.06957,1.454655 -3.87563,-0.26191 -5.66953,0.895755 z"
         id="path93"
         style="clip-rule:evenodd;fill:#45754d;fill-opacity:1;fill-rule:evenodd;stroke-width:0.0398645;image-rendering:optimizeQuality;shape-rendering:geometricPrecision;text-rendering:geometricPrecision" /><g
         id="g1"
         transform="translate(0,-23.414187)"><path
           class="fil3"
           d="m 112.7899,259.1767 c -0.34483,-1.93781 4.61112,-8.46443 6.43612,-9.31593 1.56587,-0.73032 3.2633,-0.54455 4.63066,-0.15787 -0.17341,2.9436 -2.7367,4.99463 -4.21767,6.32052 -1.12059,1.00299 -4.69882,3.79789 -6.84911,3.15328 z m -38.185801,-9.40802 c 0.762209,-1.84852 0.834364,-1.18597 2.696833,-2.66414 1.256927,-0.99781 1.622883,-1.591 3.620493,-1.66315 -0.133147,2.94041 -3.177598,3.90792 -6.317326,4.32729 z m 23.080344,-0.0438 c 0.674507,-1.46861 2.710387,-2.83197 4.156667,-3.75444 1.05163,-0.67052 0.91449,-0.66573 2.12478,-0.31054 -0.01,2.62866 -3.63205,3.80865 -6.281447,4.06498 z m 10.221257,-2.51944 c 0.40502,-2.17062 4.6474,-9.2374 5.90672,-11.19953 2.19813,-3.42436 6.824,-9.28762 9.66953,-11.91509 13.77916,-12.72116 31.28087,-1.28882 21.36458,8.5314 -7.02931,6.96113 -27.66038,13.67471 -36.94083,14.58322 z m -2.77856,2.36556 -2.9408,0.24676 c 1.22264,-1.47339 2.07973,-1.01933 2.6777,-2.52501 0.39984,-1.00658 0.50588,-6.13714 -6.795303,-0.35958 -2.310546,1.82858 -6.878219,7.84892 -4.896954,10.90573 1.569863,2.42216 4.047441,1.31034 6.419777,0.73829 -1.624478,6.45406 -19.291622,14.34165 -9.497714,-3.07674 0.678892,-1.2075 1.300778,-2.37912 1.999204,-3.40403 0.48236,-0.708 0.598366,-0.80566 1.18557,-1.51844 0.750648,-0.9113 0.950369,-0.8814 1.065179,-1.98605 -2.637435,-1.10983 -9.437121,5.80028 -11.183983,6.71996 0.71477,-3.39127 3.525217,-5.09588 4.264305,-7.08871 -1.864463,0.28703 -1.783139,1.06239 -3.582622,1.38171 -1.295596,0.22922 -3.517643,0.1762 -4.893366,0.18537 1.532391,-1.63325 3.443096,-1.15687 2.872635,-4.69325 -1.986049,-1.41599 -3.161254,-1.31114 -6.387089,1.48535 -3.117004,2.70242 -8.584818,9.7971 -3.997212,12.44729 1.706997,0.98625 6.492331,-0.43731 7.181588,-2.33606 -0.414591,0.0989 -10.265106,4.85709 -7.33706,-2.45366 2.320911,-5.7943 4.228028,-2.71477 13.306767,-3.94818 -0.997011,1.86088 -4.953561,6.10485 -4.798489,8.35321 3.93622,-0.34842 7.783542,-8.04107 11.852112,-8.34045 -0.19135,1.0309 -3.286429,5.36337 -4.483958,7.66275 -5.590596,10.73591 2.916088,11.51845 9.277663,5.90792 0.98266,-0.86665 2.035082,-1.88958 2.883398,-3.21268 0.396652,-0.6191 0.551725,-1.31433 0.939212,-2.09847 0.92246,-1.86685 0.83755,-0.11879 1.46581,-1.86884 -3.846521,0.92126 -5.95336,2.86466 -7.42117,1.01176 -1.565877,-2.22006 1.146502,-5.97489 2.275863,-6.90533 l 8.171827,-0.20451 c -0.39586,2.20013 -1.43393,5.52522 0.12078,7.36736 1.61651,1.91549 4.50908,0.67052 6.33168,-0.4413 0.0387,0.0937 0.0602,0.13993 0.075,0.295 0.0144,0.15427 0.055,0.22085 0.0757,0.2934 0.25035,0.87702 0.23081,1.42356 1.05481,1.79191 2.33487,1.04445 12.82361,-4.83078 13.10466,-10.55093 0.94957,-0.30258 1.06239,-0.0961 1.83815,-0.76859 -2.05382,-0.50309 -3.73849,-0.009 -6.29381,-0.78454 -1.56308,-0.47438 -1.39406,-0.18895 -2.60315,0.27826 -1.3809,0.53378 -1.65916,0.14152 -2.99542,0.71278 l 0.62787,1.29519 c 0.0271,0.0391 0.10524,0.12438 0.1471,0.19374 -1.45306,1.99761 -4.0004,5.85211 -5.98326,6.80687 -5.39247,2.59677 -4.82759,-3.34623 -3.56787,-6.59957 1.64481,-0.54893 2.76221,-0.86267 3.24337,-2.18338 -1.13773,0.45286 -1.49611,0.96871 -2.97588,1.2063 0.42176,-2.04863 1.80466,-1.53877 6.33686,-2.51505 2.70161,-0.58202 4.91051,-1.16843 7.56109,-1.9119 7.73172,-2.16943 29.37535,-8.53459 28.15988,-18.7395 -0.34204,-2.87024 -2.21646,-4.55093 -3.72294,-5.76201 -9.40164,-7.55632 -21.10626,0.24716 -25.75924,5.61013 -6.98825,8.05502 -9.7664,13.66714 -14.39826,23.37972 z"
           id="path25"
           style="clip-rule:evenodd;fill:#45754d;fill-opacity:1;fill-rule:evenodd;stroke-width:0.0398645;image-rendering:optimizeQuality;shape-rendering:geometricPrecision;text-rendering:geometricPrecision" /><path
           class="fil3"
           d="m 214.80432,249.73559 c 0.99462,-1.79629 4.36197,-4.41778 6.38191,-4.16026 -0.0889,2.60754 -3.60295,3.92307 -6.38191,4.16026 z m 17.20312,-8.87543 c 0.47519,-1.56548 4.04147,-5.35778 5.28524,-6.58162 5.94539,-5.84773 2.6757,-2.3544 6.66853,-5.26291 -1.26729,-0.91569 -4.30178,0.68487 -4.93403,1.25134 -1.44548,1.2952 -8.30138,9.22704 -8.90214,10.61233 -1.62408,0.0482 -2.73869,-0.2663 -3.83377,0.62467 1.81942,3.90433 3.81543,-2.1164 -2.07175,8.11482 l -4.18019,-0.44608 c 0.0757,-0.0598 0.15188,-0.11481 0.22762,-0.17381 0.19295,-0.1491 0.30058,-0.20212 0.61352,-0.45167 2.588,-2.06259 0.75025,-4.0582 0.35559,-4.26709 -4.19574,-0.75862 -9.12259,5.76281 -10.54456,8.63983 -3.98366,8.06179 6.81563,7.62687 8.17302,3.7935 -1.80706,0.38669 -6.37513,3.12618 -7.54475,0.78015 -1.0895,-2.18577 1.64201,-5.97808 2.44768,-6.78055 l 9.64003,-0.21288 c -0.58402,1.83218 -2.72753,5.54356 -3.74647,7.66036 -1.16723,2.42536 -2.22284,5.02333 -3.00937,7.78076 -0.73948,2.59238 -1.53757,6.90094 -0.32091,9.47937 4.71039,9.98088 24.70801,-5.12099 24.44451,-12.32012 -0.11322,-3.09906 -4.45207,-5.72494 -5.81663,-2.1455 1.51087,-0.27746 2.18059,-1.07276 3.41838,-0.18059 4.25275,3.20351 -5.66195,12.40025 -9.45705,14.73551 -8.37713,5.15527 -13.51765,2.12797 -10.89855,-8.53698 1.24935,-5.08711 5.25653,-14.37474 8.19813,-17.4455 l 0.72673,-0.98625 c 0.93243,-2.0004 2.66733,-5.78952 5.07873,-6.06857 l 9.14611,-0.39904 c 1.51246,-0.0845 1.45067,0.0231 1.8824,-0.90732 -1.36535,-0.73709 -8.86785,-0.30536 -11.04605,-0.30616 z"
           id="path39"
           style="clip-rule:evenodd;fill:#45754d;fill-opacity:1;fill-rule:evenodd;stroke-width:0.0398645;image-rendering:optimizeQuality;shape-rendering:geometricPrecision;text-rendering:geometricPrecision" /><path
           class="fil3"
           d="m 57.199263,248.44398 c -0.588001,0.44688 -0.120789,0.0203 -0.552921,0.57764 -0.102053,0.13195 -0.31453,0.46841 -0.42655,0.63225 -0.370341,0.54256 -0.346422,0.59518 -0.888978,1.12418 -0.70002,0.68248 -1.472594,1.16085 -2.549334,1.50289 -6.993826,2.22245 -11.491736,-7.1481 -9.429546,-13.51087 2.896155,-8.93802 17.585821,-3.31992 24.406236,-1.11501 -0.632649,1.1748 -2.105642,2.16225 -3.334664,2.63305 0.01435,0.0598 0.09368,0.0718 0.106438,0.15108 0.01315,0.0809 0.09288,0.12598 0.111222,0.15149 0.668926,0.93482 0.353598,-0.22324 0.574846,0.86865 -3.154079,3.54873 -0.774169,4.27666 -5.438712,5.63644 0.571258,1.2641 0.729918,0.20729 1.673511,1.15846 -0.71198,2.24596 -3.070762,8.71597 -1.88878,11.12658 2.422964,-0.57684 -0.05342,-0.43772 1.33267,-5.76321 2.0299,-7.79989 1.919475,-5.58103 9.139732,-6.02672 1.739287,-0.10723 1.722943,-0.31851 2.26231,-0.88499 l -8.456853,-0.47678 c 1.381304,-3.56667 4.055414,-5.4706 5.172816,-8.08491 2.737096,0.46721 5.960937,1.74407 9.022929,0.90293 3.102254,-0.85191 2.83875,-4.69843 -0.34443,-5.64003 0.333268,0.92645 5.131358,5.40642 -2.826392,4.59677 -8.477184,-0.86267 -19.349825,-7.93582 -27.913913,-4.75145 -5.756034,2.14033 -6.605147,10.37434 -3.056012,15.80588 2.933628,4.49033 6.781348,5.86486 11.53479,2.82958 1.151685,-0.7355 2.381505,-2.14073 1.769585,-3.4439 z"
           id="path47"
           style="clip-rule:evenodd;fill:#45754d;fill-opacity:1;fill-rule:evenodd;stroke-width:0.0398645;image-rendering:optimizeQuality;shape-rendering:geometricPrecision;text-rendering:geometricPrecision" /><path
           class="fil3"
           d="m 154.83218,242.72463 c -0.48714,-0.9731 -0.16105,-0.57206 -1.31353,-1.36138 -7.41799,-5.07953 9.59857,-8.04385 21.10147,-4.53299 15.70621,4.79371 2.1184,11.48137 -7.42157,12.62429 1.13892,-2.80088 5.52282,-6.83477 5.45346,-10.3859 -3.7951,0.0124 -0.17859,-0.33725 -4.20451,6.01476 -4.15707,6.5593 -2.99263,4.0008 -5.5611,5.19593 0.21328,0.89576 0.73192,0.9133 1.01575,1.77358 -0.98744,0.81124 -5.06837,7.05163 -5.16803,8.97868 1.36775,-0.75584 4.76779,-7.7389 6.70999,-9.22584 0.21607,-0.0925 9.32829,0.50707 7.77078,4.39107 -1.2649,3.15408 -8.16584,1.66075 -9.49173,3.19554 4.89416,2.47758 18.49114,-4.89058 5.83815,-8.38669 -0.0937,-0.0259 -0.94478,-0.24597 -1.05242,-0.28464 l -1.05043,-0.50428 c 4.69165,-1.01216 11.17601,-2.42097 14.11044,-5.17441 5.12498,-4.80926 -2.3245,-8.1503 -6.54894,-9.30637 -4.78573,-1.30955 -12.42935,-1.53438 -17.60934,-0.72792 -11.12937,1.73251 -6.60316,6.86546 -2.57844,7.71657 z"
           id="path49"
           style="clip-rule:evenodd;fill:#45754d;fill-opacity:1;fill-rule:evenodd;stroke-width:0.0398645;image-rendering:optimizeQuality;shape-rendering:geometricPrecision;text-rendering:geometricPrecision" /><path
           class="fil3"
           d="m 178.38492,257.32061 c -0.0518,-1.58342 0.647,-2.55611 1.40682,-3.59817 1.56906,-2.15228 5.90951,-7.30756 8.74667,-5.13056 -0.16425,1.43313 0.0534,0.64182 -0.85709,1.55511 -2.00718,2.01236 -6.93403,7.12698 -9.2964,7.17362 z m 24.85671,-7.47818 c -0.48316,3.27527 -2.66176,5.86686 -4.39546,8.44968 -1.21826,1.81503 -0.21487,1.12896 -0.9129,2.43372 -0.94877,1.77397 -7.25613,6.30776 -10.15707,6.78135 -8.72076,1.42277 -0.74946,-12.59558 1.50369,-15.76561 0.71078,-1.0002 0.92645,-1.469 1.63603,-2.42256 0.80407,-1.07993 1.40284,-1.43433 1.24258,-2.65378 -3.34543,0.69404 -5.39805,-1.26331 -10.89776,3.80028 -1.33227,1.22623 -6.60514,5.22544 -5.176,8.5896 2.41858,0.91808 10.67611,-6.46203 11.61093,-7.59418 -0.63384,2.02113 -4.57365,8.21527 -4.83835,13.01775 -0.18737,3.40084 2.49512,4.21806 4.90851,4.01595 7.46861,-0.62627 13.40962,-12.29979 19.45587,-17.05005 4.97548,-3.90871 5.20909,-0.90014 5.92825,-3.19035 -2.96552,-1.80227 -8.31414,4.66295 -9.72734,5.34383 l 2.74547,-3.92186 c 0.59438,-0.91689 0.54056,-0.40662 0.19932,-1.10385 -0.71676,-0.22205 -2.02791,0.80087 -3.12577,1.27008 z"
           id="path51"
           style="clip-rule:evenodd;fill:#45754d;fill-opacity:1;fill-rule:evenodd;stroke-width:0.0398645;image-rendering:optimizeQuality;shape-rendering:geometricPrecision;text-rendering:geometricPrecision" /><path
           class="fil3"
           d="m 125.44249,255.33895 c 0.59876,-2.74428 3.32589,-5.05243 4.36795,-7.10346 -2.54017,0.49831 -7.83656,8.75544 -7.67352,10.33686 3.27248,0.13833 4.32052,-3.41638 8.66854,-6.56807 0.50309,-0.36476 1.0273,-0.76101 1.59657,-1.13255 0.75543,-0.49312 0.53976,-0.57166 1.6173,-0.4692 -0.15507,1.1756 -3.64919,5.81702 -4.62308,7.96452 -6.35321,14.01117 8.08013,9.25175 12.47838,1.97848 0.7925,-1.31075 1.84533,-3.8254 -0.86426,-2.93084 0.53139,1.17959 0.23041,-0.0494 1.01255,1.30277 -1.26131,4.10525 -12.1766,11.25056 -12.37951,4.7371 -0.16544,-5.30517 6.87981,-13.4742 7.117,-14.86268 -2.72155,-1.20431 -9.44509,5.88201 -11.31792,6.74707 z"
           id="path59"
           style="clip-rule:evenodd;fill:#45754d;fill-opacity:1;fill-rule:evenodd;stroke-width:0.0398645;image-rendering:optimizeQuality;shape-rendering:geometricPrecision;text-rendering:geometricPrecision" /><path
           class="fil3"
           d="m 226.50375,259.17271 c -0.0231,-2.0279 4.42895,-8.34284 6.474,-9.30995 0.96312,-0.45565 3.34303,-0.93921 4.31174,-0.10444 1.94857,1.67949 -6.95117,10.46283 -10.78574,9.41439 z m 12.77777,-9.79669 c 0.39386,-0.21169 1.22782,-0.24995 1.8832,-0.82879 -2.36397,-0.41299 -3.75404,0.0179 -6.34324,-0.74746 -2.21527,-0.65537 -0.64501,0.21487 -5.5304,0.76062 0.19772,2.22962 0.46282,-0.0219 0.62707,1.97289 -0.87543,0.97947 -5.86367,6.5306 -4.27308,8.81882 2.1467,2.73391 13.34344,-4.38708 13.63645,-9.97608 z"
           id="path79"
           style="clip-rule:evenodd;fill:#45754d;fill-opacity:1;fill-rule:evenodd;stroke-width:0.0398645;image-rendering:optimizeQuality;shape-rendering:geometricPrecision;text-rendering:geometricPrecision" /><path
           class="fil12"
           d="m 187.86589,260.00867 c 3.84812,-1.59059 3.02731,-3.22743 6.69843,-6.69364 6.62508,-6.25474 7.16804,-2.57087 8.27228,-5.0608 -3.10106,-1.73092 -8.02312,4.52661 -9.69185,5.38051 0.71038,-2.17501 2.65776,-2.97549 3.23181,-5.22305 -0.98664,0.12757 -3.08551,0.87702 -3.32828,1.65597 -0.0207,0.0662 -0.0614,0.19255 -0.0869,0.27387 -0.6478,2.08013 -1.16763,2.94918 -2.32011,4.77816 -0.75982,1.2067 -2.68966,3.65637 -2.77537,4.88898 z"
           id="path95"
           style="clip-rule:evenodd;fill:#45754d;fill-opacity:1;fill-rule:evenodd;stroke-width:0.0398645;image-rendering:optimizeQuality;shape-rendering:geometricPrecision;text-rendering:geometricPrecision" /></g><path
         class="fil10"
         d="m 181.82124,65.754992 2.42775,0.418577 0.89495,2.495119 c -0.13514,0.08411 -0.2623,0.04903 -0.29419,0.155471 -0.25633,0.859479 -1.65159,-0.47957 -0.64142,2.451268 0.81921,2.376322 1.13773,4.970304 0.53817,7.518443 -0.41699,1.771179 -1.14451,1.863664 -1.73172,3.162051 3.59259,-1.284833 2.66455,-7.131359 3.15528,-10.183384 0.26589,-1.653579 1.20949,-3.681087 0.25951,-5.395659 -1.01734,-1.835361 -3.14929,-1.480168 -4.60833,-0.621886 z"
         id="path105"
         style="clip-rule:evenodd;fill:#45754d;fill-opacity:1;fill-rule:evenodd;stroke-width:0.0398645;image-rendering:optimizeQuality;shape-rendering:geometricPrecision;text-rendering:geometricPrecision" /><path
         class="fil15"
         d="m 140.65876,130.81743 c 3.76241,-0.80327 20.62071,-14.47879 21.95218,-17.48257 -2.06339,1.32987 -3.27766,3.00099 -5.27248,4.52741 -3.68387,2.81842 -5.56508,4.87104 -10.85231,8.72474 -1.50687,1.09866 -4.70879,3.09348 -5.82739,4.23042 z"
         id="path121"
         style="clip-rule:evenodd;fill:#45754d;fill-opacity:1;fill-rule:evenodd;stroke-width:0.0398645;image-rendering:optimizeQuality;shape-rendering:geometricPrecision;text-rendering:geometricPrecision" /><path
         class="fil3"
         d="m 172.72695,72.744433 c 0.43772,1.05322 2.92127,2.48874 4.14113,-1.522425 0.85868,-2.824 2.34921,-1.924259 4.54893,-3.203112 -1.40362,-1.339048 -4.18936,-0.852302 -5.07714,1.024917 -0.43891,0.927646 -0.53059,1.957346 -1.1469,2.557705 -0.97588,0.95037 -1.36456,0.30018 -2.46602,1.142915 z"
         id="path123"
         style="clip-rule:evenodd;fill:#45754d;fill-opacity:1;fill-rule:evenodd;stroke-width:0.0398645;image-rendering:optimizeQuality;shape-rendering:geometricPrecision;text-rendering:geometricPrecision" /><path
         class="fil16"
         d="m 138.69304,93.05858 c 0.66574,-2.039866 -0.54813,-2.766994 -1.5862,-4.021928 l -7.87005,-11.091497 c 0.99143,2.674109 4.87822,8.452866 6.71238,11.203516 l 1.81742,2.922067 c 0.69046,1.360176 -0.12836,0.425354 0.92645,0.987842 z"
         id="path125"
         style="clip-rule:evenodd;fill:#45754d;fill-opacity:1;fill-rule:evenodd;stroke-width:0.0398645;image-rendering:optimizeQuality;shape-rendering:geometricPrecision;text-rendering:geometricPrecision" /><path
         class="fil16"
         d="m 112.39962,81.955522 c 1.55631,1.046443 2.43532,2.087305 4.66455,0.379112 4.74347,-3.634845 2.51465,1.573451 6.29819,-1.406021 -0.23201,-0.224038 0.014,-0.427746 -1.06438,-0.63265 -0.44609,-0.08491 -1.46702,-0.04624 -1.94141,-0.01156 -4.63464,0.338051 -2.68447,3.599365 -7.95695,1.671119 z"
         id="path139"
         style="clip-rule:evenodd;fill:#45754d;fill-opacity:1;fill-rule:evenodd;stroke-width:0.0398645;image-rendering:optimizeQuality;shape-rendering:geometricPrecision;text-rendering:geometricPrecision" /><path
         class="fil20"
         d="m 111.04662,91.429318 c 0.70919,-0.929241 0.65258,-1.860874 1.57624,-3.785532 0.74746,-1.558303 1.02093,-2.134345 0.81324,-4.07136 -0.95595,1.561891 -2.37194,5.810648 -2.38948,7.856892 z"
         id="path145"
         style="clip-rule:evenodd;fill:#45754d;fill-opacity:1;fill-rule:evenodd;stroke-width:0.0398645;image-rendering:optimizeQuality;shape-rendering:geometricPrecision;text-rendering:geometricPrecision" /><path
         class="fil22"
         d="m 123.74825,76.842901 c 4.15985,1.252144 3.14371,1.534385 1.9693,4.504688 4.5011,-1.868848 -0.10923,-6.077342 -1.9693,-4.504688 z"
         id="path149"
         style="clip-rule:evenodd;fill:#45754d;fill-opacity:1;fill-rule:evenodd;stroke-width:0.0398645;image-rendering:optimizeQuality;shape-rendering:geometricPrecision;text-rendering:geometricPrecision" /><path
         class="fil24"
         d="m 138.83695,100.10343 c 0.4716,-2.310543 -0.61192,-3.903927 -2.76619,-3.8824 1.50648,0.636237 1.84692,2.094082 2.76619,3.8824 z"
         id="path155"
         style="clip-rule:evenodd;fill:#45754d;fill-opacity:1;fill-rule:evenodd;stroke-width:0.0398645;image-rendering:optimizeQuality;shape-rendering:geometricPrecision;text-rendering:geometricPrecision" /><path
         class="fil25"
         d="m 122.07354,54.159209 c -0.0777,-0.686466 0.14351,-0.353199 -0.24517,-1.13255 -0.25832,-0.519036 -0.68487,-0.802073 -0.85948,-0.965916 0.0646,0.509069 -0.0183,0.71477 0.21328,1.233805 0.411,0.922465 0.51903,0.633049 0.89137,0.864661 z"
         id="path157"
         style="clip-rule:evenodd;fill:#45754d;fill-opacity:1;fill-rule:evenodd;stroke-width:0.0398645;image-rendering:optimizeQuality;shape-rendering:geometricPrecision;text-rendering:geometricPrecision" /></g></g></svg>
